<svg viewBox="0 0 330 200" xmlns="http://www.w3.org/2000/svg"><g><g><g><g><g><line x1="65" y1="177" x2="60" y2="177" style="visibility: inherit;" fill="rgb(0, 0, 0)" stroke="rgb(204, 204, 204)" stroke-width="1px"></line><line x1="65" y1="157.33333333333331" x2="60" y2="157.33333333333331" style="visibility: inherit;" fill="rgb(0, 0, 0)" stroke="rgb(204, 204, 204)" stroke-width="1px"></line><line x1="65" y1="137.66666666666666" x2="60" y2="137.66666666666666" style="visibility: inherit;" fill="rgb(0, 0, 0)" stroke="rgb(204, 204, 204)" stroke-width="1px"></line><line x1="65" y1="118.00000000000001" x2="60" y2="118.00000000000001" style="visibility: inherit;" fill="rgb(0, 0, 0)" stroke="rgb(204, 204, 204)" stroke-width="1px"></line><line x1="65" y1="98.33333333333334" x2="60" y2="98.33333333333334" style="visibility: inherit;" fill="rgb(0, 0, 0)" stroke="rgb(204, 204, 204)" stroke-width="1px"></line><line x1="65" y1="78.66666666666666" x2="60" y2="78.66666666666666" style="visibility: inherit;" fill="rgb(0, 0, 0)" stroke="rgb(204, 204, 204)" stroke-width="1px"></line><line x1="65" y1="58.999999999999986" x2="60" y2="58.999999999999986" style="visibility: inherit;" fill="rgb(0, 0, 0)" stroke="rgb(204, 204, 204)" stroke-width="1px"></line><line x1="65" y1="39.33333333333335" x2="60" y2="39.33333333333335" style="visibility: inherit;" fill="rgb(0, 0, 0)" stroke="rgb(204, 204, 204)" stroke-width="1px"></line><line x1="65" y1="19.666666666666657" x2="60" y2="19.666666666666657" style="visibility: inherit;" fill="rgb(0, 0, 0)" stroke="rgb(204, 204, 204)" stroke-width="1px"></line><line x1="65" y1="0" x2="60" y2="0" style="visibility: inherit;" fill="rgb(0, 0, 0)" stroke="rgb(204, 204, 204)" stroke-width="1px"></line></g><g transform="translate(55, 0)"><text x="0" y="177" dx="0em" dy="0.3em" style="text-anchor: end; visibility: hidden; font-family: Roboto, sans-serif; font-size: 12px; font-weight: 200;" fill="rgb(255, 255, 255)" stroke="none" stroke-width="1px">-0.01</text><text x="0" y="157.33333333333331" dx="0em" dy="0.3em" style="text-anchor: end; visibility: inherit; font-family: Roboto, sans-serif; font-size: 12px; font-weight: 200;" fill="rgb(255, 255, 255)" stroke="none" stroke-width="1px">0</text><text x="0" y="137.66666666666666" dx="0em" dy="0.3em" style="text-anchor: end; visibility: hidden; font-family: Roboto, sans-serif; font-size: 12px; font-weight: 200;" fill="rgb(255, 255, 255)" stroke="none" stroke-width="1px">0.01</text><text x="0" y="118.00000000000001" dx="0em" dy="0.3em" style="text-anchor: end; visibility: inherit; font-family: Roboto, sans-serif; font-size: 12px; font-weight: 200;" fill="rgb(255, 255, 255)" stroke="none" stroke-width="1px">0.02</text><text x="0" y="98.33333333333334" dx="0em" dy="0.3em" style="text-anchor: end; visibility: hidden; font-family: Roboto, sans-serif; font-size: 12px; font-weight: 200;" fill="rgb(255, 255, 255)" stroke="none" stroke-width="1px">0.03</text><text x="0" y="78.66666666666666" dx="0em" dy="0.3em" style="text-anchor: end; visibility: inherit; font-family: Roboto, sans-serif; font-size: 12px; font-weight: 200;" fill="rgb(255, 255, 255)" stroke="none" stroke-width="1px">0.04</text><text x="0" y="58.999999999999986" dx="0em" dy="0.3em" style="text-anchor: end; visibility: hidden; font-family: Roboto, sans-serif; font-size: 12px; font-weight: 200;" fill="rgb(255, 255, 255)" stroke="none" stroke-width="1px">0.05</text><text x="0" y="39.33333333333335" dx="0em" dy="0.3em" style="text-anchor: end; visibility: inherit; font-family: Roboto, sans-serif; font-size: 12px; font-weight: 200;" fill="rgb(255, 255, 255)" stroke="none" stroke-width="1px">0.06</text><text x="0" y="19.666666666666657" dx="0em" dy="0.3em" style="text-anchor: end; visibility: hidden; font-family: Roboto, sans-serif; font-size: 12px; font-weight: 200;" fill="rgb(255, 255, 255)" stroke="none" stroke-width="1px">0.07</text><text x="0" y="0" dx="0em" dy="0.3em" style="text-anchor: end; visibility: hidden; font-family: Roboto, sans-serif; font-size: 12px; font-weight: 200;" fill="rgb(255, 255, 255)" stroke="none" stroke-width="1px">0.08</text></g><line x1="65" y1="0" x2="65" y2="177" fill="rgb(0, 0, 0)" stroke="rgb(204, 204, 204)" stroke-width="1px"></line></g></g><g transform="translate(65, 0)" clip-path="url(#clip_0)"><clipPath id="clip_0"><rect width="265" height="177"></rect></clipPath><g><g><g><line x1="0" y1="0" x2="0" y2="177" fill="rgb(0, 0, 0)" stroke="rgb(189, 189, 189)" stroke-width="1px" opacity="0.25"></line><line x1="22.083333333333332" y1="0" x2="22.083333333333332" y2="177" fill="rgb(0, 0, 0)" stroke="rgb(189, 189, 189)" stroke-width="1px" opacity="0.25"></line><line x1="44.166666666666664" y1="0" x2="44.166666666666664" y2="177" fill="rgb(0, 0, 0)" stroke="rgb(189, 189, 189)" stroke-width="1px" opacity="0.25"></line><line x1="66.25" y1="0" x2="66.25" y2="177" fill="rgb(0, 0, 0)" stroke="rgb(189, 189, 189)" stroke-width="1px" opacity="0.25"></line><line x1="88.33333333333333" y1="0" x2="88.33333333333333" y2="177" fill="rgb(0, 0, 0)" stroke="rgb(189, 189, 189)" stroke-width="1px" opacity="0.25"></line><line x1="110.41666666666667" y1="0" x2="110.41666666666667" y2="177" fill="rgb(0, 0, 0)" stroke="rgb(189, 189, 189)" stroke-width="1px" opacity="0.25"></line><line x1="132.5" y1="0" x2="132.5" y2="177" fill="rgb(0, 0, 0)" stroke="rgb(189, 189, 189)" stroke-width="1px" opacity="0.25"></line><line x1="154.58333333333334" y1="0" x2="154.58333333333334" y2="177" fill="rgb(0, 0, 0)" stroke="rgb(189, 189, 189)" stroke-width="1px" opacity="0.25"></line><line x1="176.66666666666666" y1="0" x2="176.66666666666666" y2="177" fill="rgb(0, 0, 0)" stroke="rgb(189, 189, 189)" stroke-width="1px" opacity="0.25"></line><line x1="198.75" y1="0" x2="198.75" y2="177" fill="rgb(0, 0, 0)" stroke="rgb(189, 189, 189)" stroke-width="1px" opacity="0.25"></line><line x1="220.83333333333334" y1="0" x2="220.83333333333334" y2="177" fill="rgb(0, 0, 0)" stroke="rgb(189, 189, 189)" stroke-width="1px" opacity="0.25"></line><line x1="242.91666666666666" y1="0" x2="242.91666666666666" y2="177" fill="rgb(0, 0, 0)" stroke="rgb(189, 189, 189)" stroke-width="1px" opacity="0.25"></line><line x1="265" y1="0" x2="265" y2="177" fill="rgb(0, 0, 0)" stroke="rgb(189, 189, 189)" stroke-width="1px" opacity="0.25"></line></g><g><line x1="0" y1="177" x2="265" y2="177" fill="rgb(0, 0, 0)" stroke="rgb(189, 189, 189)" stroke-width="1px" opacity="0.25"></line><line x1="0" y1="157.33333333333331" x2="265" y2="157.33333333333331" fill="rgb(0, 0, 0)" stroke="rgb(189, 189, 189)" stroke-width="1px" opacity="0.25"></line><line x1="0" y1="137.66666666666666" x2="265" y2="137.66666666666666" fill="rgb(0, 0, 0)" stroke="rgb(189, 189, 189)" stroke-width="1px" opacity="0.25"></line><line x1="0" y1="118.00000000000001" x2="265" y2="118.00000000000001" fill="rgb(0, 0, 0)" stroke="rgb(189, 189, 189)" stroke-width="1px" opacity="0.25"></line><line x1="0" y1="98.33333333333334" x2="265" y2="98.33333333333334" fill="rgb(0, 0, 0)" stroke="rgb(189, 189, 189)" stroke-width="1px" opacity="0.25"></line><line x1="0" y1="78.66666666666666" x2="265" y2="78.66666666666666" fill="rgb(0, 0, 0)" stroke="rgb(189, 189, 189)" stroke-width="1px" opacity="0.25"></line><line x1="0" y1="58.999999999999986" x2="265" y2="58.999999999999986" fill="rgb(0, 0, 0)" stroke="rgb(189, 189, 189)" stroke-width="1px" opacity="0.25"></line><line x1="0" y1="39.33333333333335" x2="265" y2="39.33333333333335" fill="rgb(0, 0, 0)" stroke="rgb(189, 189, 189)" stroke-width="1px" opacity="0.25"></line><line x1="0" y1="19.666666666666657" x2="265" y2="19.666666666666657" fill="rgb(0, 0, 0)" stroke="rgb(189, 189, 189)" stroke-width="1px" opacity="0.25"></line><line x1="0" y1="0" x2="265" y2="0" fill="rgb(0, 0, 0)" stroke="rgb(189, 189, 189)" stroke-width="1px" opacity="0.25"></line></g></g></g><g><g><line x1="0" y1="157.33333333333331" x2="265" y2="157.33333333333331" fill="rgb(0, 0, 0)" stroke="rgb(153, 153, 153)" stroke-width="1.5px"></line></g></g><g><g><line x1="22.083333333333332" y1="0" x2="22.083333333333332" y2="177" fill="rgb(0, 0, 0)" stroke="rgb(153, 153, 153)" stroke-width="1.5px"></line></g></g><g><g><g><g><g><path stroke="rgb(238, 51, 119)" stroke-width="2px" d="M22.083333333333332,147.05066177311042L24.291666666666664,145.36551610310562L26.5,141.73758181687572L28.708333333333336,145.2841317380605L30.916666666666668,147.5726399650464L33.125,148.36115872269846L35.333333333333336,148.91672879729765L37.541666666666664,149.5346328783245L39.75,149.70761268644574L41.95833333333333,149.87172052182098L44.166666666666664,150.07011317199004L46.375,149.51499372931153L48.58333333333333,149.63226653724294L50.79166666666667,149.9668445791186L53,150.3648601977417L55.208333333333336,150.70075992661677L57.41666666666667,150.4465360045068L59.625,150.10608857056621L61.833333333333336,150.89357874354704L64.04166666666667,150.5998299368537L66.25,149.066067168015L68.45833333333334,149.18073736022754L70.66666666666667,149.83854705005854L72.875,150.1676485692082L75.08333333333333,150.0743082014447L77.29166666666667,149.7611068105255L79.5,150.43971272256152L81.70833333333334,150.50447244900906L83.91666666666666,150.10315278435846L86.125,149.9092398208252L88.33333333333333,149.72132224909538L90.54166666666667,148.85922593634925L92.75,148.20167267293917L94.95833333333333,148.3439046295278L97.16666666666666,149.07451411920346L99.375,149.68245914065594L101.58333333333334,149.02014668884527L103.79166666666667,149.61462797953484L106,149.09131852485652L108.20833333333333,148.6321568554338L110.41666666666667,148.37844894676104L112.625,149.27203360897803L114.83333333333334,149.57322277518864L117.04166666666666,149.27643586278438L119.25,150.53782393658145L121.45833333333333,148.73802577742032L123.66666666666667,149.11563481973388L125.875,149.38816372431995L128.08333333333334,148.91667743326198L130.29166666666666,149.2286188010706L132.5,148.76433275988475L134.70833333333331,147.71793601970035L136.91666666666669,147.72047498510378L139.125,147.57580875914934L141.33333333333334,147.62811033265777L143.54166666666666,147.5261858860869L145.75,147.0255044751992L147.95833333333334,146.64807643763L150.16666666666666,147.02638058476717L152.375,147.83753684677527L154.58333333333334,147.07395004615887L156.79166666666666,146.18611021743635L159,146.54026572350514L161.20833333333331,144.73516546951046L163.41666666666669,144.6638564684469L165.625,144.56294447542103L167.83333333333331,144.8752200423829L170.04166666666669,143.0068055069935L172.25,142.5462196743384L174.45833333333334,142.3876705277003L176.66666666666666,142.6522784781776L178.875,144.18614778507683L181.08333333333334,141.7928447897569L183.29166666666666,143.3734062753818L185.5,143.37683629623263L187.70833333333334,143.46325235892064L189.91666666666666,142.20717179524138L192.125,139.44555239874464L194.33333333333331,140.5696325306992L196.54166666666669,140.77786853839362L198.75,140.71319327660044L200.95833333333331,141.44697026927855L203.16666666666669,140.9522887419835L205.375,137.76210109101783L207.58333333333334,138.11654070937863L209.79166666666666,137.96688961291846L212,136.40478182566883L214.20833333333334,136.94833364426725L216.41666666666666,137.33228105459392L218.625,139.0727862615612L220.83333333333334,138.40074218556643L223.04166666666666,138.4598792512935L225.25,138.8165979421966L227.45833333333331,138.38159985463815L229.66666666666669,137.22103578222394L231.875,135.42357760939558L234.08333333333331,135.74292642190193L236.29166666666669,134.4725217023341L238.5,134.47448510868438L240.70833333333334,136.93937758322411" style="fill: none;" fill="none"></path></g><g><path stroke="rgb(51, 187, 238)" stroke-width="2px" d="M22.083333333333332,18.17544975876809L24.291666666666664,55.43258273291089L26.5,95.27384146814849L28.708333333333336,117.38660646057642L30.916666666666668,130.1480657905883L33.125,138.02288439141427L35.333333333333336,142.9681433451186L37.541666666666664,146.1796618553675L39.75,147.9523054770915L41.95833333333333,149.40566742231678L44.166666666666664,150.4342160851394L46.375,151.0901505689101L48.58333333333333,151.7012415477053L50.79166666666667,151.80567391928057L53,152.2139605458759L55.208333333333336,152.5193050607887L57.41666666666667,152.65973408075456L59.625,152.93421121547544L61.833333333333336,152.943671129204L64.04166666666667,153.1550159198177L66.25,153.3969095757945L68.45833333333334,153.57319373833948L70.66666666666667,153.75452824743L72.875,153.99800474384702L75.08333333333333,154.2066456681041L77.29166666666667,154.29781869328417L79.5,154.42631759964985L81.70833333333334,154.50037887232864L83.91666666666666,154.60426976557312L86.125,154.6723431423217L88.33333333333333,154.77583579930254L90.54166666666667,154.79362064719234L92.75,154.8582871569481L94.95833333333333,154.96826344650887L97.16666666666666,154.9870125007315L99.375,154.9253254716203L101.58333333333334,155.12096743575742L103.79166666666667,155.13247132721798L106,155.10810163808108L108.20833333333333,155.180175089464L110.41666666666667,155.33056713567717L112.625,155.55165752974412L114.83333333333334,155.5280000007579L117.04166666666666,155.58061404797056L119.25,155.70302906482644L121.45833333333333,155.65256316553027L123.66666666666667,155.60311724873603L125.875,155.71588786435214L128.08333333333334,155.78122574881058L130.29166666666666,155.797846486814L132.5,155.8756145898078L134.70833333333331,155.74272263776666L136.91666666666669,155.88925499076143L139.125,155.92193496292654L141.33333333333334,155.70166287132335L143.54166666666666,155.81941750615158L145.75,155.87064015927754L147.95833333333334,156.0511447774888L150.16666666666666,156.08817967629804L152.375,156.00254971752636L154.58333333333334,156.09949131633633L156.79166666666666,155.9677465362025L159,156.11096468611717L161.20833333333331,156.0524246079375L163.41666666666669,156.10911396017568L165.625,155.66409081255435L167.83333333333331,155.7672590217158L170.04166666666669,155.98320148879776L172.25,156.20570613889154L174.45833333333334,156.22420849061461L176.66666666666666,156.27619696113715L178.875,156.26888983488777L181.08333333333334,156.3540677374171L183.29166666666666,156.19293756834193L185.5,156.32431355768793L187.70833333333334,156.16675274094678L189.91666666666666,156.053347371487L192.125,156.28158304492288L194.33333333333331,155.95144884628968L196.54166666666669,156.0975301964469L198.75,156.22416770310775L200.95833333333331,156.34475779783298L203.16666666666669,156.46688442302562L205.375,156.520881423248L207.58333333333334,156.5292542145975L209.79166666666666,156.5549824680931L212,156.6185002073307L214.20833333333334,156.34708494686043L216.41666666666666,156.27570516925454L218.625,156.133032470252L220.83333333333334,155.68926521560402L223.04166666666666,155.4521466431147L225.25,155.83788874443565L227.45833333333331,156.00994610366317L229.66666666666669,156.139332027603L231.875,156.30983234964563L234.08333333333331,156.4598716677281L236.29166666666669,156.5997996564216L238.5,156.33536028496215L240.70833333333334,156.04574501614718" style="fill: none;" fill="none"></path></g></g></g></g><g opacity="0.2"><g><g><g><path stroke="rgb(238, 51, 119)" stroke-width="2px" d="M22.083333333333332,147.05066177311042L24.291666666666664,144.35442870110273L26.5,138.254764902095L28.708333333333336,149.4548744453738L30.916666666666668,150.56051630619913L33.125,149.45196403128404L35.333333333333336,149.7112028930957L37.541666666666664,150.4355429603408L39.75,149.9627243038267L41.95833333333333,150.11540153156966L44.166666666666664,150.36590274050832L46.375,148.68533550078672L48.58333333333333,149.80779283307493L50.79166666666667,150.46805616871765L53,150.9614157732576L55.208333333333336,151.20437261741608L57.41666666666667,150.06530770038563L59.625,149.59550385922194L61.833333333333336,152.07469403681657L64.04166666666667,150.15923357661813L66.25,146.7655071299523L68.45833333333334,149.35273887527487L70.66666666666667,150.82524859750023L72.875,150.66129694941145L75.08333333333333,149.93429831322283L77.29166666666667,149.29130605980754L79.5,151.45761985424906L81.70833333333334,150.60161193925887L83.91666666666666,149.50117365705472L86.125,149.61837048269808L88.33333333333333,149.43944595381618L90.54166666666667,147.56608163875836L92.75,147.2153428563227L94.95833333333333,148.55725255422294L97.16666666666666,150.17042832231772L99.375,150.59437665715814L101.58333333333334,148.02667802137634L103.79166666666667,150.50634991005063L106,148.3063543457538L108.20833333333333,147.94341435283422L110.41666666666667,147.99788708426058L112.625,150.61241060122848L114.83333333333334,150.02500652428716L117.04166666666666,148.8312554943065L119.25,152.42990604694933L121.45833333333333,146.03832853895923L123.66666666666667,149.68204838316888L125.875,149.7969570811838L128.08333333333334,148.20944799669087L130.29166666666666,149.69653085277724L132.5,148.0679036981116L134.70833333333331,146.14834090943137L136.91666666666669,147.72428343320885L139.125,147.35880942021808L141.33333333333334,147.70656269292036L143.54166666666666,147.37329921623072L145.75,146.27448235886794L147.95833333333334,146.08193438127637L150.16666666666666,147.5938368054728L152.375,149.05427123978734L154.58333333333334,145.92856984523434L156.79166666666666,144.85435047435263L159,147.07149898260832L161.20833333333331,142.02751508851847L163.41666666666669,144.5568929668516L165.625,144.4115764858822L167.83333333333331,145.34363339282572L170.04166666666669,140.2041837039093L172.25,141.85534092535576L174.45833333333334,142.1498468077431L176.66666666666666,143.0491904038936L178.875,146.48695174542567L181.08333333333334,138.2028902967771L183.29166666666666,145.7442485038191L185.5,143.3819813275089L187.70833333333334,143.59287645295262L189.91666666666666,140.32305094972253L192.125,135.30312330399948L194.33333333333331,142.25575272863108L196.54166666666669,141.09022254993516L198.75,140.61618038391072L200.95833333333331,142.54763575829566L203.16666666666669,140.2102664510409L205.375,132.97681961456934L207.58333333333334,138.64820013691983L209.79166666666666,137.74241296822825L212,134.06162014479438L214.20833333333334,137.76366137216488L216.41666666666666,137.9082021700839L218.625,141.6835440720121L220.83333333333334,137.3926760715743L223.04166666666666,138.54858484988412L225.25,139.3516759785513L227.45833333333331,137.72910272330046L229.66666666666669,135.48018967360258L231.875,132.72739035015306L234.08333333333331,136.22194964066148L236.29166666666669,132.56691462298235L238.5,134.47743021820983L240.70833333333334,140.6367162950337" style="fill: none;" fill="none"></path></g><g><path stroke="rgb(51, 187, 238)" stroke-width="2px" d="M22.083333333333332,18.17544975876809L24.291666666666664,77.7868625173966L26.5,133.52144985397658L28.708333333333336,143.39121809167167L30.916666666666668,146.80942709185183L33.125,148.9165934510529L35.333333333333336,150.039942773059L37.541666666666664,150.86208667388806L39.75,150.56661050083738L41.95833333333333,151.5637405303617L44.166666666666664,151.96771021870276L46.375,152.0704827280715L48.58333333333333,152.6158826978256L50.79166666666667,151.9621178827559L53,152.82591056016582L55.208333333333336,152.97710648054877L57.41666666666667,152.8703181858485L59.625,153.34585722784203L61.833333333333336,152.95785955867422L64.04166666666667,153.47201378798732L66.25,153.7597367937366L68.45833333333334,153.8376141814515L70.66666666666667,154.0265264309322L72.875,154.36321660426134L75.08333333333333,154.5196055715593L77.29166666666667,154.43457784224302L79.5,154.61906563040492L81.70833333333334,154.61147066764534L83.91666666666666,154.76010600974163L86.125,154.77445316982144L88.33333333333333,154.93107475045446L90.54166666666667,154.82029791548848L92.75,154.95528691386184L94.95833333333333,155.1332278729727L97.16666666666666,155.0151360812597L99.375,154.83279492954412L101.58333333333334,155.41443037893623L103.79166666666667,155.14972716430202L106,155.0715471045114L108.20833333333333,155.28828526629758L110.41666666666667,155.55615520469533L112.625,155.88329312057857L114.83333333333334,155.4925137072957L117.04166666666666,155.65953511876674L119.25,155.88665159007846L121.45833333333333,155.57686431659386L123.66666666666667,155.52894837354933L125.875,155.88504378776997L128.08333333333334,155.87923257549605L130.29166666666666,155.8227775938188L132.5,155.9922667442976L134.70833333333331,155.54338470970592L136.91666666666669,156.10905352025293L139.125,155.97095492117418L141.33333333333334,155.37125473391885L143.54166666666666,155.99604945839383L145.75,155.94747413896647L147.95833333333334,156.32190170480558L150.16666666666666,156.14373202451193L152.375,155.87410477936888L154.58333333333334,156.24490371455127L156.79166666666666,155.77012936600173L159,156.3257919109892L161.20833333333331,155.96461449066797L163.41666666666669,156.194147988533L165.625,154.99655609112233L167.83333333333331,155.92201133545797L170.04166666666669,156.30711518942067L172.25,156.5394631140322L174.45833333333334,156.25196201819927L176.66666666666666,156.35417966692088L178.875,156.25792914551374L181.08333333333334,156.48183459121114L183.29166666666666,155.9512423147292L185.5,156.5213775417069L187.70833333333334,155.93041151583506L189.91666666666666,155.88323931729732L192.125,156.62393655507668L194.33333333333331,155.4562475483399L196.54166666666669,156.31665222168277L198.75,156.41412396309897L200.95833333333331,156.52564293992086L203.16666666666669,156.65007436081456L205.375,156.60187692358159L207.58333333333334,156.54181340162177L209.79166666666666,156.59357484833646L212,156.7137768161871L214.20833333333334,155.939962056155L216.41666666666666,156.16863550284566L218.625,155.91902342174822L220.83333333333334,155.02361433363208L223.04166666666666,155.0964687843807L225.25,156.41650189641706L227.45833333333331,156.26803214250444L229.66666666666669,156.33341091351272L231.875,156.5655828327096L234.08333333333331,156.6849306448518L236.29166666666669,156.80969163946185L238.5,155.93870122777298L240.70833333333334,155.61132211292474" style="fill: none;" fill="none"></path></g></g></g></g></g></g><g transform="translate(65, 177)" clip-path="url(#clip_1)"><clipPath id="clip_1"><rect width="265" height="23"></rect></clipPath><g><g><line x1="0" y1="0" x2="0" y2="5" style="visibility: inherit;" fill="rgb(0, 0, 0)" stroke="rgb(204, 204, 204)" stroke-width="1px"></line><line x1="22.083333333333332" y1="0" x2="22.083333333333332" y2="5" style="visibility: inherit;" fill="rgb(0, 0, 0)" stroke="rgb(204, 204, 204)" stroke-width="1px"></line><line x1="44.166666666666664" y1="0" x2="44.166666666666664" y2="5" style="visibility: inherit;" fill="rgb(0, 0, 0)" stroke="rgb(204, 204, 204)" stroke-width="1px"></line><line x1="66.25" y1="0" x2="66.25" y2="5" style="visibility: inherit;" fill="rgb(0, 0, 0)" stroke="rgb(204, 204, 204)" stroke-width="1px"></line><line x1="88.33333333333333" y1="0" x2="88.33333333333333" y2="5" style="visibility: inherit;" fill="rgb(0, 0, 0)" stroke="rgb(204, 204, 204)" stroke-width="1px"></line><line x1="110.41666666666667" y1="0" x2="110.41666666666667" y2="5" style="visibility: inherit;" fill="rgb(0, 0, 0)" stroke="rgb(204, 204, 204)" stroke-width="1px"></line><line x1="132.5" y1="0" x2="132.5" y2="5" style="visibility: inherit;" fill="rgb(0, 0, 0)" stroke="rgb(204, 204, 204)" stroke-width="1px"></line><line x1="154.58333333333334" y1="0" x2="154.58333333333334" y2="5" style="visibility: inherit;" fill="rgb(0, 0, 0)" stroke="rgb(204, 204, 204)" stroke-width="1px"></line><line x1="176.66666666666666" y1="0" x2="176.66666666666666" y2="5" style="visibility: inherit;" fill="rgb(0, 0, 0)" stroke="rgb(204, 204, 204)" stroke-width="1px"></line><line x1="198.75" y1="0" x2="198.75" y2="5" style="visibility: inherit;" fill="rgb(0, 0, 0)" stroke="rgb(204, 204, 204)" stroke-width="1px"></line><line x1="220.83333333333334" y1="0" x2="220.83333333333334" y2="5" style="visibility: inherit;" fill="rgb(0, 0, 0)" stroke="rgb(204, 204, 204)" stroke-width="1px"></line><line x1="242.91666666666666" y1="0" x2="242.91666666666666" y2="5" style="visibility: inherit;" fill="rgb(0, 0, 0)" stroke="rgb(204, 204, 204)" stroke-width="1px"></line><line x1="265" y1="0" x2="265" y2="5" style="visibility: inherit;" fill="rgb(0, 0, 0)" stroke="rgb(204, 204, 204)" stroke-width="1px"></line></g><g transform="translate(0, 8)"><text x="0" y="0" dx="0em" dy="0.95em" style="text-anchor: middle; visibility: hidden; font-family: Roboto, sans-serif; font-size: 12px; font-weight: 200;" fill="rgb(255, 255, 255)" stroke="none" stroke-width="1px">-10</text><text x="22.083333333333332" y="0" dx="0em" dy="0.95em" style="text-anchor: middle; visibility: inherit; font-family: Roboto, sans-serif; font-size: 12px; font-weight: 200;" fill="rgb(255, 255, 255)" stroke="none" stroke-width="1px">0</text><text x="44.166666666666664" y="0" dx="0em" dy="0.95em" style="text-anchor: middle; visibility: inherit; font-family: Roboto, sans-serif; font-size: 12px; font-weight: 200;" fill="rgb(255, 255, 255)" stroke="none" stroke-width="1px">10</text><text x="66.25" y="0" dx="0em" dy="0.95em" style="text-anchor: middle; visibility: inherit; font-family: Roboto, sans-serif; font-size: 12px; font-weight: 200;" fill="rgb(255, 255, 255)" stroke="none" stroke-width="1px">20</text><text x="88.33333333333333" y="0" dx="0em" dy="0.95em" style="text-anchor: middle; visibility: inherit; font-family: Roboto, sans-serif; font-size: 12px; font-weight: 200;" fill="rgb(255, 255, 255)" stroke="none" stroke-width="1px">30</text><text x="110.41666666666667" y="0" dx="0em" dy="0.95em" style="text-anchor: middle; visibility: inherit; font-family: Roboto, sans-serif; font-size: 12px; font-weight: 200;" fill="rgb(255, 255, 255)" stroke="none" stroke-width="1px">40</text><text x="132.5" y="0" dx="0em" dy="0.95em" style="text-anchor: middle; visibility: inherit; font-family: Roboto, sans-serif; font-size: 12px; font-weight: 200;" fill="rgb(255, 255, 255)" stroke="none" stroke-width="1px">50</text><text x="154.58333333333334" y="0" dx="0em" dy="0.95em" style="text-anchor: middle; visibility: inherit; font-family: Roboto, sans-serif; font-size: 12px; font-weight: 200;" fill="rgb(255, 255, 255)" stroke="none" stroke-width="1px">60</text><text x="176.66666666666666" y="0" dx="0em" dy="0.95em" style="text-anchor: middle; visibility: inherit; font-family: Roboto, sans-serif; font-size: 12px; font-weight: 200;" fill="rgb(255, 255, 255)" stroke="none" stroke-width="1px">70</text><text x="198.75" y="0" dx="0em" dy="0.95em" style="text-anchor: middle; visibility: inherit; font-family: Roboto, sans-serif; font-size: 12px; font-weight: 200;" fill="rgb(255, 255, 255)" stroke="none" stroke-width="1px">80</text><text x="220.83333333333334" y="0" dx="0em" dy="0.95em" style="text-anchor: middle; visibility: inherit; font-family: Roboto, sans-serif; font-size: 12px; font-weight: 200;" fill="rgb(255, 255, 255)" stroke="none" stroke-width="1px">90</text><text x="242.91666666666666" y="0" dx="0em" dy="0.95em" style="text-anchor: middle; visibility: inherit; font-family: Roboto, sans-serif; font-size: 12px; font-weight: 200;" fill="rgb(255, 255, 255)" stroke="none" stroke-width="1px">100</text><text x="265" y="0" dx="0em" dy="0.95em" style="text-anchor: middle; visibility: hidden; font-family: Roboto, sans-serif; font-size: 12px; font-weight: 200;" fill="rgb(255, 255, 255)" stroke="none" stroke-width="1px">110</text></g><line x1="0" y1="0" x2="265" y2="0" fill="rgb(0, 0, 0)" stroke="rgb(204, 204, 204)" stroke-width="1px"></line></g></g></g></g></svg>