<svg viewBox="0 0 330 200" xmlns="http://www.w3.org/2000/svg"><g><g><g><g><g><line x1="54" y1="177" x2="49" y2="177" style="visibility: inherit;" fill="rgb(0, 0, 0)" stroke="rgb(204, 204, 204)" stroke-width="1px"></line><line x1="54" y1="162.25" x2="49" y2="162.25" style="visibility: inherit;" fill="rgb(0, 0, 0)" stroke="rgb(204, 204, 204)" stroke-width="1px"></line><line x1="54" y1="147.5" x2="49" y2="147.5" style="visibility: inherit;" fill="rgb(0, 0, 0)" stroke="rgb(204, 204, 204)" stroke-width="1px"></line><line x1="54" y1="132.75" x2="49" y2="132.75" style="visibility: inherit;" fill="rgb(0, 0, 0)" stroke="rgb(204, 204, 204)" stroke-width="1px"></line><line x1="54" y1="118.00000000000001" x2="49" y2="118.00000000000001" style="visibility: inherit;" fill="rgb(0, 0, 0)" stroke="rgb(204, 204, 204)" stroke-width="1px"></line><line x1="54" y1="103.25" x2="49" y2="103.25" style="visibility: inherit;" fill="rgb(0, 0, 0)" stroke="rgb(204, 204, 204)" stroke-width="1px"></line><line x1="54" y1="88.50000000000001" x2="49" y2="88.50000000000001" style="visibility: inherit;" fill="rgb(0, 0, 0)" stroke="rgb(204, 204, 204)" stroke-width="1px"></line><line x1="54" y1="73.75000000000001" x2="49" y2="73.75000000000001" style="visibility: inherit;" fill="rgb(0, 0, 0)" stroke="rgb(204, 204, 204)" stroke-width="1px"></line><line x1="54" y1="59.00000000000003" x2="49" y2="59.00000000000003" style="visibility: inherit;" fill="rgb(0, 0, 0)" stroke="rgb(204, 204, 204)" stroke-width="1px"></line><line x1="54" y1="44.25000000000002" x2="49" y2="44.25000000000002" style="visibility: inherit;" fill="rgb(0, 0, 0)" stroke="rgb(204, 204, 204)" stroke-width="1px"></line><line x1="54" y1="29.500000000000014" x2="49" y2="29.500000000000014" style="visibility: inherit;" fill="rgb(0, 0, 0)" stroke="rgb(204, 204, 204)" stroke-width="1px"></line><line x1="54" y1="14.750000000000007" x2="49" y2="14.750000000000007" style="visibility: inherit;" fill="rgb(0, 0, 0)" stroke="rgb(204, 204, 204)" stroke-width="1px"></line><line x1="54" y1="0" x2="49" y2="0" style="visibility: inherit;" fill="rgb(0, 0, 0)" stroke="rgb(204, 204, 204)" stroke-width="1px"></line></g><g transform="translate(44, 0)"><text x="0" y="177" dx="0em" dy="0.3em" style="text-anchor: end; visibility: hidden; font-family: Roboto, sans-serif; font-size: 12px; font-weight: 200;" fill="rgb(255, 255, 255)" stroke="none" stroke-width="1px">-0.1</text><text x="0" y="162.25" dx="0em" dy="0.3em" style="text-anchor: end; visibility: inherit; font-family: Roboto, sans-serif; font-size: 12px; font-weight: 200;" fill="rgb(255, 255, 255)" stroke="none" stroke-width="1px">0</text><text x="0" y="147.5" dx="0em" dy="0.3em" style="text-anchor: end; visibility: hidden; font-family: Roboto, sans-serif; font-size: 12px; font-weight: 200;" fill="rgb(255, 255, 255)" stroke="none" stroke-width="1px">0.1</text><text x="0" y="132.75" dx="0em" dy="0.3em" style="text-anchor: end; visibility: inherit; font-family: Roboto, sans-serif; font-size: 12px; font-weight: 200;" fill="rgb(255, 255, 255)" stroke="none" stroke-width="1px">0.2</text><text x="0" y="118.00000000000001" dx="0em" dy="0.3em" style="text-anchor: end; visibility: hidden; font-family: Roboto, sans-serif; font-size: 12px; font-weight: 200;" fill="rgb(255, 255, 255)" stroke="none" stroke-width="1px">0.3</text><text x="0" y="103.25" dx="0em" dy="0.3em" style="text-anchor: end; visibility: inherit; font-family: Roboto, sans-serif; font-size: 12px; font-weight: 200;" fill="rgb(255, 255, 255)" stroke="none" stroke-width="1px">0.4</text><text x="0" y="88.50000000000001" dx="0em" dy="0.3em" style="text-anchor: end; visibility: hidden; font-family: Roboto, sans-serif; font-size: 12px; font-weight: 200;" fill="rgb(255, 255, 255)" stroke="none" stroke-width="1px">0.5</text><text x="0" y="73.75000000000001" dx="0em" dy="0.3em" style="text-anchor: end; visibility: inherit; font-family: Roboto, sans-serif; font-size: 12px; font-weight: 200;" fill="rgb(255, 255, 255)" stroke="none" stroke-width="1px">0.6</text><text x="0" y="59.00000000000003" dx="0em" dy="0.3em" style="text-anchor: end; visibility: hidden; font-family: Roboto, sans-serif; font-size: 12px; font-weight: 200;" fill="rgb(255, 255, 255)" stroke="none" stroke-width="1px">0.7</text><text x="0" y="44.25000000000002" dx="0em" dy="0.3em" style="text-anchor: end; visibility: inherit; font-family: Roboto, sans-serif; font-size: 12px; font-weight: 200;" fill="rgb(255, 255, 255)" stroke="none" stroke-width="1px">0.8</text><text x="0" y="29.500000000000014" dx="0em" dy="0.3em" style="text-anchor: end; visibility: hidden; font-family: Roboto, sans-serif; font-size: 12px; font-weight: 200;" fill="rgb(255, 255, 255)" stroke="none" stroke-width="1px">0.9</text><text x="0" y="14.750000000000007" dx="0em" dy="0.3em" style="text-anchor: end; visibility: inherit; font-family: Roboto, sans-serif; font-size: 12px; font-weight: 200;" fill="rgb(255, 255, 255)" stroke="none" stroke-width="1px">1</text><text x="0" y="0" dx="0em" dy="0.3em" style="text-anchor: end; visibility: hidden; font-family: Roboto, sans-serif; font-size: 12px; font-weight: 200;" fill="rgb(255, 255, 255)" stroke="none" stroke-width="1px">1.1</text></g><line x1="54" y1="0" x2="54" y2="177" fill="rgb(0, 0, 0)" stroke="rgb(204, 204, 204)" stroke-width="1px"></line></g></g><g transform="translate(54, 0)" clip-path="url(#clip_0)"><clipPath id="clip_0"><rect width="276" height="177"></rect></clipPath><g><g><g><line x1="0" y1="0" x2="0" y2="177" fill="rgb(0, 0, 0)" stroke="rgb(189, 189, 189)" stroke-width="1px" opacity="0.25"></line><line x1="23" y1="0" x2="23" y2="177" fill="rgb(0, 0, 0)" stroke="rgb(189, 189, 189)" stroke-width="1px" opacity="0.25"></line><line x1="46" y1="0" x2="46" y2="177" fill="rgb(0, 0, 0)" stroke="rgb(189, 189, 189)" stroke-width="1px" opacity="0.25"></line><line x1="69" y1="0" x2="69" y2="177" fill="rgb(0, 0, 0)" stroke="rgb(189, 189, 189)" stroke-width="1px" opacity="0.25"></line><line x1="92" y1="0" x2="92" y2="177" fill="rgb(0, 0, 0)" stroke="rgb(189, 189, 189)" stroke-width="1px" opacity="0.25"></line><line x1="115" y1="0" x2="115" y2="177" fill="rgb(0, 0, 0)" stroke="rgb(189, 189, 189)" stroke-width="1px" opacity="0.25"></line><line x1="138" y1="0" x2="138" y2="177" fill="rgb(0, 0, 0)" stroke="rgb(189, 189, 189)" stroke-width="1px" opacity="0.25"></line><line x1="161" y1="0" x2="161" y2="177" fill="rgb(0, 0, 0)" stroke="rgb(189, 189, 189)" stroke-width="1px" opacity="0.25"></line><line x1="184" y1="0" x2="184" y2="177" fill="rgb(0, 0, 0)" stroke="rgb(189, 189, 189)" stroke-width="1px" opacity="0.25"></line><line x1="207" y1="0" x2="207" y2="177" fill="rgb(0, 0, 0)" stroke="rgb(189, 189, 189)" stroke-width="1px" opacity="0.25"></line><line x1="230" y1="0" x2="230" y2="177" fill="rgb(0, 0, 0)" stroke="rgb(189, 189, 189)" stroke-width="1px" opacity="0.25"></line><line x1="253" y1="0" x2="253" y2="177" fill="rgb(0, 0, 0)" stroke="rgb(189, 189, 189)" stroke-width="1px" opacity="0.25"></line><line x1="276" y1="0" x2="276" y2="177" fill="rgb(0, 0, 0)" stroke="rgb(189, 189, 189)" stroke-width="1px" opacity="0.25"></line></g><g><line x1="0" y1="177" x2="276" y2="177" fill="rgb(0, 0, 0)" stroke="rgb(189, 189, 189)" stroke-width="1px" opacity="0.25"></line><line x1="0" y1="162.25" x2="276" y2="162.25" fill="rgb(0, 0, 0)" stroke="rgb(189, 189, 189)" stroke-width="1px" opacity="0.25"></line><line x1="0" y1="147.5" x2="276" y2="147.5" fill="rgb(0, 0, 0)" stroke="rgb(189, 189, 189)" stroke-width="1px" opacity="0.25"></line><line x1="0" y1="132.75" x2="276" y2="132.75" fill="rgb(0, 0, 0)" stroke="rgb(189, 189, 189)" stroke-width="1px" opacity="0.25"></line><line x1="0" y1="118.00000000000001" x2="276" y2="118.00000000000001" fill="rgb(0, 0, 0)" stroke="rgb(189, 189, 189)" stroke-width="1px" opacity="0.25"></line><line x1="0" y1="103.25" x2="276" y2="103.25" fill="rgb(0, 0, 0)" stroke="rgb(189, 189, 189)" stroke-width="1px" opacity="0.25"></line><line x1="0" y1="88.50000000000001" x2="276" y2="88.50000000000001" fill="rgb(0, 0, 0)" stroke="rgb(189, 189, 189)" stroke-width="1px" opacity="0.25"></line><line x1="0" y1="73.75000000000001" x2="276" y2="73.75000000000001" fill="rgb(0, 0, 0)" stroke="rgb(189, 189, 189)" stroke-width="1px" opacity="0.25"></line><line x1="0" y1="59.00000000000003" x2="276" y2="59.00000000000003" fill="rgb(0, 0, 0)" stroke="rgb(189, 189, 189)" stroke-width="1px" opacity="0.25"></line><line x1="0" y1="44.25000000000002" x2="276" y2="44.25000000000002" fill="rgb(0, 0, 0)" stroke="rgb(189, 189, 189)" stroke-width="1px" opacity="0.25"></line><line x1="0" y1="29.500000000000014" x2="276" y2="29.500000000000014" fill="rgb(0, 0, 0)" stroke="rgb(189, 189, 189)" stroke-width="1px" opacity="0.25"></line><line x1="0" y1="14.750000000000007" x2="276" y2="14.750000000000007" fill="rgb(0, 0, 0)" stroke="rgb(189, 189, 189)" stroke-width="1px" opacity="0.25"></line><line x1="0" y1="0" x2="276" y2="0" fill="rgb(0, 0, 0)" stroke="rgb(189, 189, 189)" stroke-width="1px" opacity="0.25"></line></g></g></g><g><g><line x1="0" y1="162.25" x2="276" y2="162.25" fill="rgb(0, 0, 0)" stroke="rgb(153, 153, 153)" stroke-width="1.5px"></line></g></g><g><g><line x1="23" y1="0" x2="23" y2="177" fill="rgb(0, 0, 0)" stroke="rgb(153, 153, 153)" stroke-width="1.5px"></line></g></g><g><g><g><g><g><path stroke="rgb(238, 51, 119)" stroke-width="2px" d="M23,162.25L25.299999999999997,162.25L27.6,159.04406941393202L29.900000000000002,150.5641683188596L32.2,133.69847941610092L34.5,118.40561331222665L36.8,106.36746712751827L39.1,96.9552779216728L41.4,89.13350015908524L43.699999999999996,88.87858686563682L46,86.95524350157824L48.3,83.35104497389108L50.599999999999994,84.62913646810443L52.900000000000006,80.48127774025505L55.2,79.07876033492077L57.5,81.42380544400523L59.800000000000004,81.9851740284329L62.1,83.92591513987783L64.4,82.42841692169338L66.7,86.506292546714L69,81.84073808992561L71.30000000000001,82.53781185457011L73.6,80.00602975744401L75.9,80.79480508750628L78.2,75.07864771656402L80.5,74.64012513680473L82.8,71.65104181085933L85.10000000000001,73.0709812689323L87.39999999999999,73.61284747112629L89.7,65.84001094158857L92,65.07070009074273L94.3,63.84535879969832L96.6,60.06745722778895L98.9,68.44774628383652L101.19999999999999,68.91082644485424L103.5,70.0103032346106L105.80000000000001,67.19467484135592L108.1,68.8334957253939L110.4,63.968545240769586L112.7,62.7186552761833L115,67.60322085288573L117.3,65.09354236760608L119.60000000000001,69.354648156436L121.89999999999999,64.6062758577416L124.2,67.9062133084717L126.5,68.38059267112492L128.8,69.30769201943099L131.1,64.26446408516064L133.4,61.38913592385885L135.7,56.348893491511376L138,58.673647933068125L140.29999999999998,58.743393202342155L142.60000000000002,55.430270027940175L144.9,56.511130292312274L147.2,59.134294092118L149.5,57.26521726814394L151.8,53.77998948316189L154.1,54.05263450277104L156.4,55.02972317059199L158.7,55.008769847866056L161,55.101371024797075L163.3,53.069546553343365L165.6,53.08175550273052L167.89999999999998,50.067758502787306L170.20000000000002,48.71387987269519L172.5,48.74373634417986L174.79999999999998,51.12543543434226L177.10000000000002,48.3752886906629L179.4,49.033897152862856L181.7,50.52654938180559L184,50.807355763192845L186.3,51.850461042926256L188.6,51.76030827582213L190.9,54.81859622609816L193.2,54.56346191294314L195.5,52.073748358054885L197.8,53.566955022790395L200.1,52.95228817032479L202.39999999999998,48.69337840060415L204.70000000000002,46.916054470420036L207,49.38966025297652L209.29999999999998,52.231938620715205L211.60000000000002,48.78267033118538L213.9,48.120848043075405L216.2,46.57253625590279L218.5,46.72860489248439L220.8,50.5102278587771L223.1,48.80167098030763L225.4,47.24921158066582L227.7,48.239246637291856L230,45.57084564606378L232.3,47.833933521747774L234.6,49.0226096090318L236.89999999999998,46.58325413326272L239.20000000000002,45.903739592193645L241.5,46.03777802035756L243.79999999999998,48.42168235805959L246.10000000000002,48.275616038008515L248.4,49.10677415619135L250.7,49.35378418260719" style="fill: none;" fill="none"></path></g><g><path stroke="rgb(51, 187, 238)" stroke-width="2px" d="M23,142.02479875087738L25.299999999999997,151.32178389606997L27.6,126.4146405145982L29.900000000000002,96.70649535634885L32.2,76.03447273740966L34.5,61.226173293289136L36.8,51.61004957366199L39.1,44.77219303315491L41.4,41.28607334619478L43.699999999999996,37.62187099962649L46,35.313230482415335L48.3,33.839653081781556L50.599999999999994,31.878851913626235L52.900000000000006,30.8135186284266L55.2,29.97518455619453L57.5,29.34177273523101L59.800000000000004,28.52948671896777L62.1,28.119180376154873L64.4,27.1303900642572L66.7,26.87761258538177L69,26.452988819278644L71.30000000000001,26.208756615370568L73.6,25.65089535610768L75.9,25.428444737527755L78.2,25.143012090250398L80.5,24.486433592242857L82.8,24.250252402573004L85.10000000000001,24.0105235277185L87.39999999999999,23.77859709649536L89.7,23.227498004132276L92,22.767224554338682L94.3,22.650633137554454L96.6,22.72406365097368L98.9,22.471634676500614L101.19999999999999,22.34154460829052L103.5,22.323295128166528L105.80000000000001,21.798249892215946L108.1,21.46182730777573L110.4,21.339855008947406L112.7,20.96375939415938L115,20.398275262659514L117.3,20.185402182563475L119.60000000000001,19.89301710586708L121.89999999999999,20.19239332240619L124.2,19.755880176747944L126.5,19.72935734970711L128.8,19.744249718090504L131.1,19.483575807029485L133.4,19.493397609004212L135.7,19.248643264535357L138,19.211704305030718L140.29999999999998,19.277123696338013L142.60000000000002,18.877645627695134L144.9,18.6344843125566L147.2,18.67766853667646L149.5,18.445553663357106L151.8,18.378703607907294L154.1,18.10695728885551L156.4,18.002778620883326L158.7,18.16762439689907L161,18.11236438919232L163.3,18.321222375447334L165.6,18.058771103986956L167.89999999999998,18.160127550583397L170.20000000000002,17.992445522678693L172.5,17.91799332745838L174.79999999999998,17.68796163825972L177.10000000000002,17.620515239410306L179.4,17.27815148363872L181.7,17.230779594960005L184,17.18987578557859L186.3,17.13514636997541L188.6,16.986124843622207L190.9,17.013349455752973L193.2,16.897823013162046L195.5,16.98915585118259L197.8,16.986348916517045L200.1,17.056651073352324L202.39999999999998,16.954683898482227L204.70000000000002,16.892687725182487L207,16.884351365063274L209.29999999999998,16.98013039368016L211.60000000000002,16.952089881525165L213.9,16.79061422087297L216.2,16.691945870742487L218.5,16.75031079055386L220.8,16.79934720517111L223.1,16.815166558747954L225.4,16.664248601153794L227.7,16.47082104417997L230,16.501494217713596L232.3,16.358081882476768L234.6,16.30136002616881L236.89999999999998,16.487052223186485L239.20000000000002,16.49744052952576L241.5,16.5738487438324L243.79999999999998,16.59116992926379L246.10000000000002,16.295464298580768L248.4,16.324044168862503L250.7,16.427554572148814" style="fill: none;" fill="none"></path></g></g></g></g><g opacity="0.2"><g><g><g><path stroke="rgb(238, 51, 119)" stroke-width="2px" d="M23,162.25L25.299999999999997,162.25L27.6,155.96637605130672L29.900000000000002,140.5918046310544L32.2,111.6786359846592L34.5,97.25007405877115L36.8,89.15272547304633L39.1,83.23221570253374L41.4,77.59789726138116L43.699999999999996,88.50007033348085L46,84.08767303824428L48.3,77.96436107158664L50.599999999999994,86.5421005189419L52.900000000000006,74.26761573553087L55.2,76.97663283348085L57.5,84.9397192001343L59.800000000000004,82.82698935270311L62.1,86.83653405308726L64.4,80.18239772319797L66.7,92.62273325026038L69,74.84266227483752L71.30000000000001,83.5833995640278L73.6,76.20840659737588L75.9,81.97795873880389L78.2,66.50445228815082L80.5,73.98234313726427L82.8,67.16742447018625L85.10000000000001,75.20088827610019L87.39999999999999,74.42564627528193L89.7,54.18076044321063L92,63.91673406958582L94.3,62.00734710693362L96.6,54.400605320930495L98.9,81.0181792676449L101.19999999999999,69.60544666647914L103.5,71.65951839089395L105.80000000000001,62.97123229503633L108.1,71.29172703623773L110.4,56.67111954092982L112.7,60.84382033348085L115,74.93006920814517L117.3,61.32902464270594L119.60000000000001,75.74630683660509L121.89999999999999,57.48371741175653L124.2,72.85611948370936L126.5,69.0921617150307L128.8,70.69834104180337L131.1,56.69962218403818L133.4,57.076143682003035L135.7,48.788529843091986L138,62.160779595375075L140.29999999999998,58.8480111062527L142.60000000000002,50.46058526635173L144.9,58.13242068886759L147.2,63.069039791822455L149.5,54.46160203218463L151.8,48.55214780569078L154.1,54.46160203218463L156.4,56.495356172323255L158.7,54.97733986377719L161,55.240272790193586L163.3,50.021809846162824L165.6,53.10006892681125L167.89999999999998,45.54676300287248L170.20000000000002,46.68306192755701L172.5,48.788521051406875L174.79999999999998,54.697984069585814L177.10000000000002,44.250068575143835L179.4,50.021809846162824L181.7,52.765527725219755L184,51.228565335273764L186.3,53.41511896252635L188.6,51.62507912516595L190.9,59.406028151512174L193.2,54.18076044321063L195.5,48.339178025722525L197.8,55.80676501989366L200.1,52.03028789162638L202.39999999999998,42.3050137460232L204.70000000000002,44.250068575143835L207,53.10006892681125L209.29999999999998,56.495356172323255L211.60000000000002,43.60876789689067L213.9,47.12811461091044L216.2,44.250068575143835L218.5,46.96270784735681L220.8,56.18266230821611L223.1,46.23883566260341L225.4,44.9205224812031L227.7,49.72429922223094L230,41.568244159221685L232.3,51.228565335273764L234.6,50.80562373995784L236.89999999999998,42.92422091960909L239.20000000000002,44.88446778059008L241.5,46.23883566260341L243.79999999999998,51.99753886461261L246.10000000000002,48.05651655793192L248.4,50.35351133346559L250.7,49.72429922223094" style="fill: none;" fill="none"></path></g><g><path stroke="rgb(51, 187, 238)" stroke-width="2px" d="M23,142.02479875087738L25.299999999999997,156.89997498318553L27.6,102.50378286838531L29.900000000000002,61.76971665024759L32.2,49.04508000612261L34.5,40.740964174270665L36.8,37.85883879661562L39.1,34.80253255367282L41.4,36.14472395181658L43.699999999999996,32.1809575557709L46,31.87120890617373L48.3,31.63730612397196L50.599999999999994,28.9440525174141L52.900000000000006,29.21760579943657L55.2,28.71866887807846L57.5,28.39210173487664L59.800000000000004,27.311401426792145L62.1,27.503825038671508L64.4,25.647355228662498L66.7,26.498469471931458L69,25.816076457500465L71.30000000000001,25.84241634607315L73.6,24.814114481210716L75.9,25.094771444797523L78.2,24.71486514806748L80.5,23.50156864523889L82.8,23.895981222391143L85.10000000000001,23.650930583477034L87.39999999999999,23.430707663297653L89.7,22.400849670171745L92,22.076814532279982L94.3,22.475746035575867L96.6,22.83420941233635L98.9,22.09299123287203L101.19999999999999,22.14640951156617L103.5,22.29592090845108L105.80000000000001,21.010682046413436L108.1,20.957193434238448L110.4,21.156896561384208L112.7,20.399615973234184L115,19.550049066543586L117.3,19.866092562675497L119.60000000000001,19.45443949103356L121.89999999999999,20.641457647085204L124.2,19.101110458374045L126.5,19.68957310914994L128.8,19.766588270664222L131.1,19.092564940452597L133.4,19.508130311965964L135.7,18.881511747837088L138,19.15629586577416L140.29999999999998,19.375252783298514L142.60000000000002,18.278428524732597L144.9,18.269742339849493L147.2,18.742444872856147L149.5,18.097381353378317L151.8,18.278428524732597L154.1,17.699337810277946L156.4,17.8465106189251L158.7,18.41489306092263L161,18.029474377632148L163.3,18.63450935482981L165.6,17.66509419679644L167.89999999999998,18.312162220478065L170.20000000000002,17.74092248082163L172.5,17.80631503462792L174.79999999999998,17.342914104461684L177.10000000000002,17.51934564113619L179.4,16.764605849981315L181.7,17.15972176194193L184,17.12852007150652L186.3,17.0530522465706L188.6,16.76259255409243L190.9,17.054186373949065L193.2,16.72453334927561L195.5,17.126155108213432L197.8,16.98213851451876L200.1,17.1621043086052L202.39999999999998,16.801733136177084L204.70000000000002,16.799693465232863L207,16.871846824884422L209.29999999999998,17.123798936605475L211.60000000000002,16.910029113292715L213.9,16.54840072989466L216.2,16.543943345546744L218.5,16.837858170270934L220.8,16.872901827096946L223.1,16.838895589113257L225.4,16.437871664762504L227.7,16.180679708719275L230,16.547503978014014L232.3,16.142963379621527L234.6,16.216277241706862L236.89999999999998,16.76559051871301L239.20000000000002,16.513022989034667L241.5,16.688461065292366L243.79999999999998,16.617151707410827L246.10000000000002,15.851905852556241L248.4,16.366913974285147L250.7,16.58282017707827" style="fill: none;" fill="none"></path></g></g></g></g></g></g><g transform="translate(54, 177)" clip-path="url(#clip_1)"><clipPath id="clip_1"><rect width="276" height="23"></rect></clipPath><g><g><line x1="0" y1="0" x2="0" y2="5" style="visibility: inherit;" fill="rgb(0, 0, 0)" stroke="rgb(204, 204, 204)" stroke-width="1px"></line><line x1="23" y1="0" x2="23" y2="5" style="visibility: inherit;" fill="rgb(0, 0, 0)" stroke="rgb(204, 204, 204)" stroke-width="1px"></line><line x1="46" y1="0" x2="46" y2="5" style="visibility: inherit;" fill="rgb(0, 0, 0)" stroke="rgb(204, 204, 204)" stroke-width="1px"></line><line x1="69" y1="0" x2="69" y2="5" style="visibility: inherit;" fill="rgb(0, 0, 0)" stroke="rgb(204, 204, 204)" stroke-width="1px"></line><line x1="92" y1="0" x2="92" y2="5" style="visibility: inherit;" fill="rgb(0, 0, 0)" stroke="rgb(204, 204, 204)" stroke-width="1px"></line><line x1="115" y1="0" x2="115" y2="5" style="visibility: inherit;" fill="rgb(0, 0, 0)" stroke="rgb(204, 204, 204)" stroke-width="1px"></line><line x1="138" y1="0" x2="138" y2="5" style="visibility: inherit;" fill="rgb(0, 0, 0)" stroke="rgb(204, 204, 204)" stroke-width="1px"></line><line x1="161" y1="0" x2="161" y2="5" style="visibility: inherit;" fill="rgb(0, 0, 0)" stroke="rgb(204, 204, 204)" stroke-width="1px"></line><line x1="184" y1="0" x2="184" y2="5" style="visibility: inherit;" fill="rgb(0, 0, 0)" stroke="rgb(204, 204, 204)" stroke-width="1px"></line><line x1="207" y1="0" x2="207" y2="5" style="visibility: inherit;" fill="rgb(0, 0, 0)" stroke="rgb(204, 204, 204)" stroke-width="1px"></line><line x1="230" y1="0" x2="230" y2="5" style="visibility: inherit;" fill="rgb(0, 0, 0)" stroke="rgb(204, 204, 204)" stroke-width="1px"></line><line x1="253" y1="0" x2="253" y2="5" style="visibility: inherit;" fill="rgb(0, 0, 0)" stroke="rgb(204, 204, 204)" stroke-width="1px"></line><line x1="276" y1="0" x2="276" y2="5" style="visibility: inherit;" fill="rgb(0, 0, 0)" stroke="rgb(204, 204, 204)" stroke-width="1px"></line></g><g transform="translate(0, 8)"><text x="0" y="0" dx="0em" dy="0.95em" style="text-anchor: middle; visibility: hidden; font-family: Roboto, sans-serif; font-size: 12px; font-weight: 200;" fill="rgb(255, 255, 255)" stroke="none" stroke-width="1px">-10</text><text x="23" y="0" dx="0em" dy="0.95em" style="text-anchor: middle; visibility: inherit; font-family: Roboto, sans-serif; font-size: 12px; font-weight: 200;" fill="rgb(255, 255, 255)" stroke="none" stroke-width="1px">0</text><text x="46" y="0" dx="0em" dy="0.95em" style="text-anchor: middle; visibility: inherit; font-family: Roboto, sans-serif; font-size: 12px; font-weight: 200;" fill="rgb(255, 255, 255)" stroke="none" stroke-width="1px">10</text><text x="69" y="0" dx="0em" dy="0.95em" style="text-anchor: middle; visibility: inherit; font-family: Roboto, sans-serif; font-size: 12px; font-weight: 200;" fill="rgb(255, 255, 255)" stroke="none" stroke-width="1px">20</text><text x="92" y="0" dx="0em" dy="0.95em" style="text-anchor: middle; visibility: inherit; font-family: Roboto, sans-serif; font-size: 12px; font-weight: 200;" fill="rgb(255, 255, 255)" stroke="none" stroke-width="1px">30</text><text x="115" y="0" dx="0em" dy="0.95em" style="text-anchor: middle; visibility: inherit; font-family: Roboto, sans-serif; font-size: 12px; font-weight: 200;" fill="rgb(255, 255, 255)" stroke="none" stroke-width="1px">40</text><text x="138" y="0" dx="0em" dy="0.95em" style="text-anchor: middle; visibility: inherit; font-family: Roboto, sans-serif; font-size: 12px; font-weight: 200;" fill="rgb(255, 255, 255)" stroke="none" stroke-width="1px">50</text><text x="161" y="0" dx="0em" dy="0.95em" style="text-anchor: middle; visibility: inherit; font-family: Roboto, sans-serif; font-size: 12px; font-weight: 200;" fill="rgb(255, 255, 255)" stroke="none" stroke-width="1px">60</text><text x="184" y="0" dx="0em" dy="0.95em" style="text-anchor: middle; visibility: inherit; font-family: Roboto, sans-serif; font-size: 12px; font-weight: 200;" fill="rgb(255, 255, 255)" stroke="none" stroke-width="1px">70</text><text x="207" y="0" dx="0em" dy="0.95em" style="text-anchor: middle; visibility: inherit; font-family: Roboto, sans-serif; font-size: 12px; font-weight: 200;" fill="rgb(255, 255, 255)" stroke="none" stroke-width="1px">80</text><text x="230" y="0" dx="0em" dy="0.95em" style="text-anchor: middle; visibility: inherit; font-family: Roboto, sans-serif; font-size: 12px; font-weight: 200;" fill="rgb(255, 255, 255)" stroke="none" stroke-width="1px">90</text><text x="253" y="0" dx="0em" dy="0.95em" style="text-anchor: middle; visibility: inherit; font-family: Roboto, sans-serif; font-size: 12px; font-weight: 200;" fill="rgb(255, 255, 255)" stroke="none" stroke-width="1px">100</text><text x="276" y="0" dx="0em" dy="0.95em" style="text-anchor: middle; visibility: hidden; font-family: Roboto, sans-serif; font-size: 12px; font-weight: 200;" fill="rgb(255, 255, 255)" stroke="none" stroke-width="1px">110</text></g><line x1="0" y1="0" x2="276" y2="0" fill="rgb(0, 0, 0)" stroke="rgb(204, 204, 204)" stroke-width="1px"></line></g></g></g></g></svg>